<svg width="20" height="20" viewBox="0 0 20 20" fill="none" xmlns="http://www.w3.org/2000/svg">
<path d="M6.875 2.4375C6.875 1.29883 7.79883 0.375 8.9375 0.375H10.3125C11.4512 0.375 12.375 1.29883 12.375 2.4375V17.5625C12.375 18.7012 11.4512 19.625 10.3125 19.625H8.9375C7.79883 19.625 6.875 18.7012 6.875 17.5625V2.4375ZM0 10.6875C0 9.54883 0.923828 8.625 2.0625 8.625H3.4375C4.57617 8.625 5.5 9.54883 5.5 10.6875V17.5625C5.5 18.7012 4.57617 19.625 3.4375 19.625H2.0625C0.923828 19.625 0 18.7012 0 17.5625V10.6875ZM15.8125 3.125H17.1875C18.3262 3.125 19.25 4.04883 19.25 5.1875V17.5625C19.25 18.7012 18.3262 19.625 17.1875 19.625H15.8125C14.6738 19.625 13.75 18.7012 13.75 17.5625V5.1875C13.75 4.04883 14.6738 3.125 15.8125 3.125Z" fill="#F8B602"/>
</svg>
