<svg width="20" height="20" viewBox="0 0 20 20" fill="none" xmlns="http://www.w3.org/2000/svg">
<path d="M16.8428 6.51668L10.4262 10.2333C10.1678 10.3833 9.84282 10.3833 9.57616 10.2333L3.15949 6.51668C2.70116 6.25001 2.58449 5.62501 2.93449 5.23335C3.17616 4.95835 3.45116 4.73335 3.74282 4.57501L8.25949 2.07501C9.22616 1.53335 10.7928 1.53335 11.7595 2.07501L16.2762 4.57501C16.5678 4.73335 16.8428 4.96668 17.0845 5.23335C17.4178 5.62501 17.3012 6.25001 16.8428 6.51668Z" fill="white"/>
<path d="M9.52604 11.7833V17.4666C9.52604 18.1 8.88437 18.5166 8.31771 18.2416C6.60104 17.4 3.70937 15.825 3.70937 15.825C2.69271 15.25 1.85938 13.8 1.85938 12.6083V8.30831C1.85938 7.64998 2.55104 7.23331 3.11771 7.55831L9.10938 11.0333C9.35938 11.1916 9.52604 11.475 9.52604 11.7833Z" fill="white"/>
<path d="M10.4746 11.7833V17.4666C10.4746 18.1 11.1163 18.5166 11.6829 18.2416C13.3996 17.4 16.2913 15.825 16.2913 15.825C17.3079 15.25 18.1413 13.8 18.1413 12.6083V8.30831C18.1413 7.64998 17.4496 7.23331 16.8829 7.55831L10.8913 11.0333C10.6413 11.1916 10.4746 11.475 10.4746 11.7833Z" fill="white"/>
</svg>
