<svg width="8" height="8" viewBox="0 0 8 8" fill="none" xmlns="http://www.w3.org/2000/svg">
<path d="M2.16406 0.835938C1.79687 0.46875 1.20312 0.46875 0.839844 0.835938C0.476562 1.20312 0.472656 1.79687 0.839844 2.16016L2.67578 3.99609L0.839844 5.83203C0.472656 6.19922 0.472656 6.79297 0.839844 7.15625C1.20703 7.51953 1.80078 7.52344 2.16406 7.15625L4 5.32031L5.83594 7.15625C6.20312 7.52344 6.79687 7.52344 7.16016 7.15625C7.52344 6.78906 7.52734 6.19531 7.16016 5.83203L5.32422 3.99609L7.16016 2.16016C7.52734 1.79297 7.52734 1.19922 7.16016 0.835938C6.79297 0.472656 6.19922 0.46875 5.83594 0.835938L4 2.67188L2.16406 0.835938Z" fill="#83899F"/>
</svg>
