<svg width="13" height="9" viewBox="0 0 13 9" fill="none" xmlns="http://www.w3.org/2000/svg">
<path d="M6.49896 0.237915C4.81577 0.237915 3.46797 0.938119 2.48681 1.77151C1.51189 2.5973 0.859865 3.58671 0.551558 4.26599C0.482814 4.4163 0.482814 4.58374 0.551558 4.73406C0.859865 5.41333 1.51189 6.40275 2.48681 7.22853C3.46797 8.06193 4.81577 8.76213 6.49896 8.76213C8.18215 8.76213 9.52995 8.06193 10.5111 7.22853C11.486 6.40085 12.1381 5.41333 12.4484 4.73406C12.5172 4.58374 12.5172 4.4163 12.4484 4.26599C12.1381 3.58671 11.486 2.5973 10.5111 1.77151C9.52995 0.938119 8.18215 0.237915 6.49896 0.237915ZM3.49922 4.50002C3.49922 3.77335 3.81526 3.07644 4.37782 2.5626C4.94038 2.04877 5.70338 1.7601 6.49896 1.7601C7.29454 1.7601 8.05753 2.04877 8.62009 2.5626C9.18266 3.07644 9.4987 3.77335 9.4987 4.50002C9.4987 5.2267 9.18266 5.92361 8.62009 6.43744C8.05753 6.95128 7.29454 7.23995 6.49896 7.23995C5.70338 7.23995 4.94038 6.95128 4.37782 6.43744C3.81526 5.92361 3.49922 5.2267 3.49922 4.50002ZM6.49896 3.28228C6.49896 3.95394 5.90109 4.50002 5.16574 4.50002C5.01784 4.50002 4.87618 4.47719 4.74286 4.43723C4.62829 4.40298 4.49497 4.46768 4.49913 4.57803C4.50538 4.70932 4.52621 4.84061 4.56579 4.9719C4.85118 5.9461 5.94901 6.52452 7.01558 6.26385C8.08215 6.00318 8.71543 5.00044 8.43004 4.02624C8.19881 3.23661 7.43429 2.70575 6.58437 2.67341C6.46355 2.6696 6.39272 2.78947 6.43021 2.89602C6.47396 3.0178 6.49896 3.14718 6.49896 3.28228Z" fill="#83899F"/>
</svg>
