<svg width="24" height="24" viewBox="0 0 24 24" fill="none" xmlns="http://www.w3.org/2000/svg">
<path d="M20.0383 6.82006L14.2783 2.79006C12.7083 1.69006 10.2983 1.75006 8.78828 2.92006L3.77828 6.83006C2.77828 7.61006 1.98828 9.21006 1.98828 10.4701V17.3701C1.98828 19.9201 4.05828 22.0001 6.60828 22.0001H17.3883C19.9383 22.0001 22.0083 19.9301 22.0083 17.3801V10.6001C22.0083 9.25006 21.1383 7.59006 20.0383 6.82006ZM12.7483 18.0001C12.7483 18.4101 12.4083 18.7501 11.9983 18.7501C11.5883 18.7501 11.2483 18.4101 11.2483 18.0001V15.0001C11.2483 14.5901 11.5883 14.2501 11.9983 14.2501C12.4083 14.2501 12.7483 14.5901 12.7483 15.0001V18.0001Z" fill="white"/>
</svg>
