<svg width="20" height="20" viewBox="0 0 20 20" fill="none" xmlns="http://www.w3.org/2000/svg">
<path d="M14.166 1.66669H5.83268C3.53268 1.66669 1.66602 3.52502 1.66602 5.81669V10.8V11.6334C1.66602 13.925 3.53268 15.7834 5.83268 15.7834H7.08268C7.30768 15.7834 7.60768 15.9334 7.74935 16.1167L8.99935 17.775C9.54935 18.5084 10.4493 18.5084 10.9993 17.775L12.2493 16.1167C12.4077 15.9084 12.6577 15.7834 12.916 15.7834H14.166C16.466 15.7834 18.3327 13.925 18.3327 11.6334V5.81669C18.3327 3.52502 16.466 1.66669 14.166 1.66669ZM6.66602 10C6.19935 10 5.83268 9.62502 5.83268 9.16669C5.83268 8.70835 6.20768 8.33335 6.66602 8.33335C7.12435 8.33335 7.49935 8.70835 7.49935 9.16669C7.49935 9.62502 7.13268 10 6.66602 10ZM9.99935 10C9.53268 10 9.16602 9.62502 9.16602 9.16669C9.16602 8.70835 9.54102 8.33335 9.99935 8.33335C10.4577 8.33335 10.8327 8.70835 10.8327 9.16669C10.8327 9.62502 10.466 10 9.99935 10ZM13.3327 10C12.866 10 12.4993 9.62502 12.4993 9.16669C12.4993 8.70835 12.8743 8.33335 13.3327 8.33335C13.791 8.33335 14.166 8.70835 14.166 9.16669C14.166 9.62502 13.7993 10 13.3327 10Z" fill="white"/>
</svg>
