<svg width="20" height="20" viewBox="0 0 20 20" fill="none" xmlns="http://www.w3.org/2000/svg">
<path d="M9.94766 9.18122C9.6282 9.18122 9.36328 8.91631 9.36328 8.59685V6.00222C9.36328 5.68276 9.6282 5.41785 9.94766 5.41785C10.2671 5.41785 10.532 5.68276 10.532 6.00222V8.59685C10.532 8.9241 10.2671 9.18122 9.94766 9.18122Z" fill="#A1A5B7"/>
<path d="M9.96367 16.8404C7.95342 16.8404 5.95096 16.521 4.042 15.8821C3.33296 15.6483 2.79534 15.1419 2.56159 14.5029C2.32784 13.864 2.40575 13.1316 2.78754 12.4927L3.77709 10.8409C3.99525 10.4746 4.19004 9.78898 4.19004 9.36044V7.72419C4.19004 4.53739 6.77688 1.95056 9.96367 1.95056C13.1505 1.95056 15.7373 4.53739 15.7373 7.72419V9.36044C15.7373 9.78119 15.9321 10.4746 16.1503 10.8409L17.1398 12.4927C17.506 13.1004 17.5683 13.8251 17.3268 14.4874C17.0853 15.1496 16.5554 15.6561 15.8853 15.8821C13.9764 16.5288 11.9739 16.8404 9.96367 16.8404ZM9.96367 3.1271C7.42359 3.1271 5.35879 5.19189 5.35879 7.73198V9.36823C5.35879 9.99935 5.10946 10.911 4.78221 11.4486L3.79267 13.1082C3.59009 13.4433 3.54334 13.8017 3.66021 14.1134C3.77709 14.425 4.042 14.6588 4.416 14.7834C8.00017 15.9756 11.9428 15.9756 15.5269 14.7834C15.862 14.6744 16.1191 14.425 16.236 14.0978C16.3606 13.7705 16.3217 13.4121 16.1425 13.1082L15.1529 11.4564C14.8257 10.9188 14.5763 10.0071 14.5763 9.37602V7.73977C14.5685 5.1919 12.5038 3.1271 9.96367 3.1271Z" fill="#A1A5B7"/>
<path d="M9.94658 18.8273C9.11287 18.8273 8.29474 18.4844 7.70258 17.8923C7.11041 17.3001 6.76758 16.482 6.76758 15.6483H7.93633C7.93633 16.1781 8.15449 16.6923 8.52849 17.0663C8.90249 17.4403 9.41674 17.6585 9.94658 17.6585C11.053 17.6585 11.9568 16.7547 11.9568 15.6483H13.1256C13.1256 17.4014 11.6997 18.8273 9.94658 18.8273Z" fill="#A1A5B7"/>
</svg>
