<svg width="20" height="20" viewBox="0 0 20 20" fill="none" xmlns="http://www.w3.org/2000/svg">
<path d="M7.49935 1.66669C5.31602 1.66669 3.54102 3.44169 3.54102 5.62502C3.54102 7.76669 5.21602 9.50002 7.39935 9.57502C7.46602 9.56669 7.53268 9.56669 7.58268 9.57502C7.59935 9.57502 7.60768 9.57502 7.62435 9.57502C7.63268 9.57502 7.63268 9.57502 7.64102 9.57502C9.77435 9.50002 11.4493 7.76669 11.4577 5.62502C11.4577 3.44169 9.68268 1.66669 7.49935 1.66669Z" fill="white"/>
<path d="M11.7348 11.7917C9.40977 10.2417 5.6181 10.2417 3.27643 11.7917C2.2181 12.5 1.63477 13.4583 1.63477 14.4833C1.63477 15.5083 2.2181 16.4583 3.2681 17.1583C4.43477 17.9417 5.9681 18.3333 7.50143 18.3333C9.03477 18.3333 10.5681 17.9417 11.7348 17.1583C12.7848 16.45 13.3681 15.5 13.3681 14.4667C13.3598 13.4417 12.7848 12.4917 11.7348 11.7917Z" fill="white"/>
<path d="M16.6578 6.11665C16.7911 7.73331 15.6411 9.14998 14.0495 9.34165C14.0411 9.34165 14.0411 9.34165 14.0328 9.34165H14.0078C13.9578 9.34165 13.9078 9.34165 13.8661 9.35831C13.0578 9.39998 12.3161 9.14165 11.7578 8.66665C12.6161 7.89998 13.1078 6.74998 13.0078 5.49998C12.9495 4.82498 12.7161 4.20831 12.3661 3.68331C12.6828 3.52498 13.0495 3.42498 13.4245 3.39165C15.0578 3.24998 16.5161 4.46665 16.6578 6.11665Z" fill="white"/>
<path d="M18.3249 13.825C18.2582 14.6334 17.7415 15.3334 16.8749 15.8084C16.0415 16.2667 14.9915 16.4834 13.9499 16.4584C14.5499 15.9167 14.8999 15.2417 14.9665 14.525C15.0499 13.4917 14.5582 12.5 13.5749 11.7084C13.0165 11.2667 12.3665 10.9167 11.6582 10.6584C13.4999 10.125 15.8165 10.4834 17.2415 11.6334C18.0082 12.25 18.3999 13.025 18.3249 13.825Z" fill="white"/>
</svg>
