<svg width="19" height="20" viewBox="0 0 19 20" fill="none" xmlns="http://www.w3.org/2000/svg">
<path d="M9.25794 17.9312C4.85565 17.9312 1.27148 14.3471 1.27148 9.94477C1.27148 5.54248 4.85565 1.95831 9.25794 1.95831C13.6602 1.95831 17.2444 5.54248 17.2444 9.94477C17.2444 14.3471 13.6602 17.9312 9.25794 17.9312ZM9.25794 3.12706C5.49457 3.12706 2.44023 6.18919 2.44023 9.94477C2.44023 13.7004 5.49457 16.7625 9.25794 16.7625C13.0213 16.7625 16.0757 13.7004 16.0757 9.94477C16.0757 6.18919 13.0213 3.12706 9.25794 3.12706Z" fill="#A1A5B7"/>
<path d="M17.4396 18.7104C17.2915 18.7104 17.1435 18.6559 17.0266 18.539L15.4683 16.9807C15.2423 16.7547 15.2423 16.3807 15.4683 16.1548C15.6943 15.9288 16.0683 15.9288 16.2942 16.1548L17.8525 17.7131C18.0785 17.9391 18.0785 18.3131 17.8525 18.539C17.7357 18.6559 17.5876 18.7104 17.4396 18.7104Z" fill="#A1A5B7"/>
</svg>
