<svg width="20" height="20" viewBox="0 0 20 20" fill="none" xmlns="http://www.w3.org/2000/svg">
<path d="M13.8441 17.5417H6.05247C5.73302 17.5417 5.4681 17.2767 5.4681 16.9573C5.4681 16.6378 5.73302 16.3729 6.05247 16.3729H13.8441C16.0726 16.3729 17.1556 15.2899 17.1556 13.0614V7.60728C17.1556 5.37887 16.0726 4.29583 13.8441 4.29583H6.05247C3.82406 4.29583 2.74102 5.37887 2.74102 7.60728C2.74102 7.92674 2.4761 8.19166 2.15664 8.19166C1.83718 8.19166 1.57227 7.92674 1.57227 7.60728C1.57227 4.76332 3.20852 3.12708 6.05247 3.12708H13.8441C16.6881 3.12708 18.3243 4.76332 18.3243 7.60728V13.0614C18.3243 15.9054 16.6881 17.5417 13.8441 17.5417Z" fill="#A1A5B7"/>
<path d="M9.94716 11.0122C9.29266 11.0122 8.63037 10.8097 8.12391 10.3967L5.68512 8.44879C5.43579 8.24621 5.38904 7.88 5.59162 7.63067C5.79421 7.38133 6.16041 7.33459 6.40974 7.53717L8.84853 9.48509C9.4407 9.96038 10.4458 9.96038 11.038 9.48509L13.4768 7.53717C13.7261 7.33459 14.1001 7.37354 14.2949 7.63067C14.4975 7.88 14.4585 8.254 14.2014 8.44879L11.7626 10.3967C11.2639 10.8097 10.6017 11.0122 9.94716 11.0122Z" fill="#A1A5B7"/>
<path d="M6.83164 14.425H2.15664C1.83718 14.425 1.57227 14.1601 1.57227 13.8406C1.57227 13.5211 1.83718 13.2562 2.15664 13.2562H6.83164C7.1511 13.2562 7.41602 13.5211 7.41602 13.8406C7.41602 14.1601 7.1511 14.425 6.83164 14.425Z" fill="#A1A5B7"/>
<path d="M4.49414 11.3083H2.15664C1.83718 11.3083 1.57227 11.0434 1.57227 10.724C1.57227 10.4045 1.83718 10.1396 2.15664 10.1396H4.49414C4.8136 10.1396 5.07852 10.4045 5.07852 10.724C5.07852 11.0434 4.8136 11.3083 4.49414 11.3083Z" fill="#A1A5B7"/>
</svg>
