<svg width="16" height="16" viewBox="0 0 16 16" fill="none" xmlns="http://www.w3.org/2000/svg">
<path fill-rule="evenodd" clip-rule="evenodd" d="M10.9299 1.34724L10.9739 1.35924C11.7072 1.55591 12.2879 1.71124 12.7446 1.87657C13.2119 2.04524 13.5932 2.23791 13.9072 2.53191C14.3642 2.96026 14.6839 3.51451 14.8259 4.12457C14.9239 4.54324 14.9006 4.9699 14.8126 5.45857C14.7279 5.93724 14.5726 6.51791 14.3759 7.25057L14.0186 8.58324C13.8226 9.3159 13.6666 9.89657 13.5019 10.3539C13.3326 10.8206 13.1399 11.2019 12.8459 11.5159C12.4316 11.9583 11.8989 12.2726 11.3112 12.4212C11.1391 12.816 10.8882 13.1714 10.5739 13.4659C10.2599 13.7599 9.87858 13.9526 9.41124 14.1219C8.95458 14.2872 8.37391 14.4426 7.64124 14.6392L7.59658 14.6512C6.86324 14.8472 6.28324 15.0026 5.80458 15.0886C5.31591 15.1759 4.88924 15.1992 4.46991 15.1019C3.85993 14.9594 3.30591 14.6393 2.87791 14.1819C2.58458 13.8686 2.39124 13.4872 2.22191 13.0199C2.05724 12.5632 1.90191 11.9826 1.70524 11.2492L1.34791 9.91724C1.15191 9.1839 0.99591 8.6039 0.910577 8.12524C0.823243 7.63657 0.79991 7.2099 0.897243 6.79057C1.0397 6.18059 1.35987 5.62657 1.81724 5.19857C2.13058 4.90524 2.51191 4.71191 2.97924 4.54257C3.43591 4.37791 4.01658 4.22257 4.74924 4.02591L4.77191 4.01924L5.27258 3.88591C5.53391 2.95324 5.76324 2.29391 6.21124 1.81591C6.63933 1.35878 7.19334 1.03885 7.80324 0.896572C8.22258 0.799239 8.64858 0.822572 9.13791 0.909905C9.61591 0.995239 10.1966 1.15124 10.9299 1.34724ZM4.97058 5.0019C4.24191 5.19724 3.71991 5.33857 3.31858 5.48324C2.91191 5.62991 2.67391 5.7659 2.50058 5.92857C2.18768 6.22145 1.96867 6.60054 1.87124 7.01791C1.81791 7.24991 1.81858 7.52457 1.89524 7.94924C1.97191 8.38057 2.11658 8.92057 2.31991 9.68057L2.66524 10.9686C2.86858 11.7286 3.01391 12.2686 3.16258 12.6799C3.30924 13.0866 3.44524 13.3252 3.60791 13.4986C3.90079 13.8115 4.27988 14.0305 4.69724 14.1279C4.92858 14.1812 5.20391 14.1799 5.62858 14.1039C6.05991 14.0272 6.59991 13.8826 7.35991 13.6792C8.11991 13.4752 8.65991 13.3306 9.07191 13.1812C9.47791 13.0346 9.71658 12.8986 9.88991 12.7366C9.98191 12.6499 10.0652 12.5566 10.1406 12.4572C10.0169 12.4396 9.89374 12.4184 9.77124 12.3939C9.32324 12.3046 8.78458 12.1606 8.12124 11.9826L8.08258 11.9726C7.34991 11.7759 6.76924 11.6206 6.31258 11.4552C5.84524 11.2866 5.46391 11.0939 5.14991 10.7999C4.69267 10.3716 4.37273 9.81738 4.23058 9.20724C4.13324 8.78857 4.15658 8.36191 4.24391 7.87324C4.32924 7.39457 4.48524 6.8139 4.68124 6.08124L4.97058 5.0019ZM8.96191 1.89457C8.53658 1.81791 8.26191 1.81657 8.03058 1.87057C7.61321 1.96799 7.23412 2.18701 6.94124 2.49991C6.65058 2.80991 6.47124 3.28991 6.16058 4.42857C6.10991 4.61391 6.05658 4.81324 5.99858 5.0299L5.65324 6.3179C5.44991 7.07791 5.30524 7.61791 5.22858 8.04924C5.15191 8.47391 5.15058 8.74924 5.20458 8.98057C5.302 9.39793 5.52101 9.77703 5.83391 10.0699C6.00724 10.2326 6.24591 10.3679 6.65191 10.5152C7.06391 10.6639 7.60391 10.8086 8.36391 11.0126C9.04724 11.1959 9.55391 11.3312 9.96591 11.4126C10.3759 11.4946 10.6546 11.5146 10.8826 11.4866C10.9326 11.4799 10.9799 11.4719 11.0266 11.4612C11.4439 11.3638 11.823 11.1448 12.1159 10.8319C12.2786 10.6586 12.4146 10.4199 12.5612 10.0139C12.7099 9.6019 12.8546 9.0619 13.0586 8.3019L13.4039 7.01391C13.6072 6.2539 13.7519 5.7139 13.8286 5.28257C13.9046 4.8579 13.9066 4.58257 13.8526 4.35124C13.7552 3.93388 13.5361 3.55478 13.2232 3.26191C13.0499 3.09924 12.8112 2.96391 12.4052 2.81657C11.9926 2.66791 11.4532 2.52324 10.6932 2.31924C9.93324 2.11591 9.39324 1.97124 8.96191 1.89457ZM7.36858 6.53724C7.38559 6.4738 7.41494 6.41434 7.45494 6.36225C7.49494 6.31016 7.54482 6.26646 7.60171 6.23365C7.65861 6.20084 7.72141 6.17955 7.78653 6.17102C7.85165 6.16248 7.91782 6.16686 7.98124 6.18391L11.2012 7.04657C11.3258 7.08402 11.4308 7.16851 11.4941 7.28212C11.5574 7.39573 11.5739 7.52953 11.5402 7.65512C11.5064 7.78071 11.4251 7.88821 11.3134 7.95482C11.2017 8.02143 11.0684 8.04191 10.9419 8.0119L7.72191 7.14924C7.59394 7.11486 7.48486 7.0311 7.4186 6.91635C7.35235 6.8016 7.33436 6.66525 7.36858 6.53724ZM6.85058 8.46924C6.86759 8.40573 6.89696 8.3462 6.93701 8.29406C6.97705 8.24191 7.02699 8.19818 7.08396 8.16536C7.14093 8.13254 7.20381 8.11128 7.26901 8.10279C7.33421 8.09431 7.40044 8.09876 7.46391 8.1159L9.39524 8.63324C9.52334 8.66754 9.63257 8.75132 9.6989 8.86616C9.76522 8.98099 9.78321 9.11747 9.74891 9.24557C9.71461 9.37367 9.63083 9.4829 9.51599 9.54922C9.40116 9.61555 9.26468 9.63354 9.13658 9.59924L7.20458 9.08124C7.07661 9.04686 6.96752 8.9631 6.90127 8.84835C6.83502 8.7336 6.81703 8.59725 6.85124 8.46924" fill="#83899F"/>
</svg>
