<svg width="16" height="15" viewBox="0 0 16 15" fill="none" xmlns="http://www.w3.org/2000/svg">
<path d="M9.45938 14.2187H5.70938C4.88438 14.2187 4.19688 14.1375 3.61563 13.9625C3.40313 13.9 3.26563 13.6937 3.27813 13.475C3.43438 11.6062 5.32813 10.1375 7.58438 10.1375C9.84063 10.1375 11.7281 11.6 11.8906 13.475C11.9094 13.7 11.7719 13.9 11.5531 13.9625C10.9719 14.1375 10.2844 14.2187 9.45938 14.2187ZM4.28438 13.1625C4.69688 13.2437 5.16563 13.2812 5.70938 13.2812H9.45938C10.0031 13.2812 10.4719 13.2437 10.8844 13.1625C10.5531 11.9625 9.18438 11.075 7.58438 11.075C5.98438 11.075 4.61563 11.9625 4.28438 13.1625Z" fill="#83899F"/>
<path d="M9.45898 1.25H5.70898C2.58398 1.25 1.33398 2.5 1.33398 5.625V9.375C1.33398 11.7375 2.04648 13.0312 3.74648 13.5125C3.88398 11.8875 5.55273 10.6062 7.58398 10.6062C9.61523 10.6062 11.284 11.8875 11.4215 13.5125C13.1215 13.0312 13.834 11.7375 13.834 9.375V5.625C13.834 2.5 12.584 1.25 9.45898 1.25ZM7.58398 8.85624C6.34648 8.85624 5.34648 7.85001 5.34648 6.61251C5.34648 5.37501 6.34648 4.375 7.58398 4.375C8.82148 4.375 9.82149 5.37501 9.82149 6.61251C9.82149 7.85001 8.82148 8.85624 7.58398 8.85624Z" stroke="#83899F" stroke-width="0.9375" stroke-linecap="round" stroke-linejoin="round"/>
<path d="M7.5832 9.32499C6.08945 9.32499 4.87695 8.10626 4.87695 6.61251C4.87695 5.11876 6.08945 3.90625 7.5832 3.90625C9.07695 3.90625 10.2895 5.11876 10.2895 6.61251C10.2895 8.10626 9.07695 9.32499 7.5832 9.32499ZM7.5832 4.84375C6.6082 4.84375 5.81445 5.63751 5.81445 6.61251C5.81445 7.59376 6.6082 8.38749 7.5832 8.38749C8.5582 8.38749 9.35196 7.59376 9.35196 6.61251C9.35196 5.63751 8.5582 4.84375 7.5832 4.84375Z" fill="#83899F"/>
</svg>
